<svg xmlns="http://www.w3.org/2000/svg" xmlns:xlink="http://www.w3.org/1999/xlink" width="51" height="51" viewBox="0 0 51 51">
  <defs>
    <clipPath id="clip-path">
      <rect id="Rectangle_1249" data-name="Rectangle 1249" width="51" height="51" transform="translate(698 7370)" fill="#cb1515" stroke="#7d7d7d" stroke-width="1"/>
    </clipPath>
  </defs>
  <g id="Mask_Group_102" data-name="Mask Group 102" transform="translate(-698 -7370)" clip-path="url(#clip-path)">
    <g id="download" transform="translate(694.868 7366.846)">
      <path id="Path_257" data-name="Path 257" d="M43.059,34H38.138A1.342,1.342,0,0,0,36.8,35.342c0,2.453,0,7.39,0,9.842a1.342,1.342,0,1,0,2.684,0V41.605h3.579a3.8,3.8,0,1,0,0-7.605Zm0,4.921H39.48V36.684h3.579a1.118,1.118,0,1,1,0,2.237Z" fill="#cb1515"/>
      <path id="Path_258" data-name="Path 258" d="M28.632,34a1.342,1.342,0,0,0-1.342,1.342v9.842a1.342,1.342,0,0,0,2.684,0V35.342A1.342,1.342,0,0,0,28.632,34Z" fill="#cb1515"/>
      <path id="Path_259" data-name="Path 259" d="M19.6,34.086a1.342,1.342,0,0,0-1.728.786l-2.434,6.49L13,34.871a1.342,1.342,0,1,0-2.513.942l3.691,9.842a1.35,1.35,0,0,0,2.513,0l3.691-9.842a1.342,1.342,0,0,0-.785-1.727Z" fill="#cb1515"/>
      <path id="Path_260" data-name="Path 260" d="M48.316,26.395H47.225L35.319,9.386c-.785-8.271-12.582-8.29-13.375,0L10.038,26.395c-3.616-.383-6.887,2.056-6.906,5.816V48.316a5.823,5.823,0,0,0,5.816,5.816H48.316a5.823,5.823,0,0,0,5.816-5.816V32.211a5.823,5.823,0,0,0-5.816-5.816ZM28.632,5.816a4.026,4.026,0,1,1-4.026,4.026,4.026,4.026,0,0,1,4.026-4.026ZM22.7,12.981a6.735,6.735,0,0,0,11.854,0l9.39,13.414H13.315ZM51.447,48.316a3.135,3.135,0,0,1-3.132,3.132H8.947a3.135,3.135,0,0,1-3.132-3.132V32.21a3.135,3.135,0,0,1,3.132-3.132H48.316a3.135,3.135,0,0,1,3.132,3.132Z" fill="#cb1515"/>
    </g>
  </g>
</svg>
