<svg xmlns="http://www.w3.org/2000/svg" xmlns:xlink="http://www.w3.org/1999/xlink" width="51" height="51" viewBox="0 0 51 51">
  <defs>
    <clipPath id="clip-path">
      <rect id="Rectangle_1248" data-name="Rectangle 1248" width="51" height="51" transform="translate(398 5542)" fill="#cb1515" stroke="#7d7d7d" stroke-width="1"/>
    </clipPath>
  </defs>
  <g id="Mask_Group_76" data-name="Mask Group 76" transform="translate(-398 -5542)" clip-path="url(#clip-path)">
    <g id="return" transform="translate(398 5544.799)">
      <g id="Group_2025" data-name="Group 2025" transform="translate(0 0)">
        <g id="Group_2024" data-name="Group 2024">
          <path id="Path_205" data-name="Path 205" d="M44.5,37.991a1.487,1.487,0,0,0-2.007.627A18.976,18.976,0,0,1,6.7,29.866L7.9,31.059a1.487,1.487,0,1,0,2.1-2.1l-3.73-3.73a1.487,1.487,0,0,0-2.1,0l-3.73,3.73a1.487,1.487,0,1,0,2.1,2.1l1.191-1.191A21.949,21.949,0,0,0,45.128,40,1.487,1.487,0,0,0,44.5,37.991Z" transform="translate(0 -6.62)" fill="#cb1515"/>
          <path id="Path_206" data-name="Path 206" d="M51.311,24.025a1.487,1.487,0,0,0-2.1,0l-1.191,1.191a21.949,21.949,0,0,0-41.4-10.13,1.487,1.487,0,1,0,2.634,1.38,18.976,18.976,0,0,1,35.791,8.753l-1.193-1.193a1.487,1.487,0,1,0-2.1,2.1l3.73,3.73a1.487,1.487,0,0,0,2.1,0l3.73-3.73a1.487,1.487,0,0,0,0-2.1Z" transform="translate(-0.994 -3.309)" fill="#cb1515"/>
        </g>
        <path id="Path_207" data-name="Path 207" d="M31.058,26.291a14.435,14.435,0,0,1-3.667-1.7,1.233,1.233,0,0,1-.282-1.172,1.683,1.683,0,0,1,1.109-1.327,2.965,2.965,0,0,1,2.682.394A1.487,1.487,0,0,0,32.68,20.1a5.93,5.93,0,0,0-2.215-.993V18.5a1.487,1.487,0,1,0-2.974,0v.7l-.132.037a4.625,4.625,0,0,0-3.173,3.624,4.126,4.126,0,0,0,1.369,4.062A15.711,15.711,0,0,0,30.067,29.1a1.917,1.917,0,0,1,1.387,2.247,2.505,2.505,0,0,1-2.486,2.113,4.159,4.159,0,0,1-2.989-.784,1.487,1.487,0,1,0-1.628,2.488,6.622,6.622,0,0,0,3.14,1.21v.68a1.487,1.487,0,0,0,2.974,0v-.822A5.326,5.326,0,0,0,32.669,35a5.579,5.579,0,0,0,1.718-3.169,4.9,4.9,0,0,0-3.329-5.544Z" transform="translate(-3.649 -5.421)" fill="#cb1515"/>
      </g>
    </g>
  </g>
</svg>
