<svg xmlns="http://www.w3.org/2000/svg" xmlns:xlink="http://www.w3.org/1999/xlink" width="44" height="44" viewBox="0 0 44 44">
  <defs>
    <clipPath id="clip-path">
      <rect id="Rectangle_1227" data-name="Rectangle 1227" width="44" height="44" transform="translate(637 63)" stroke="#707070" stroke-width="1"/>
    </clipPath>
  </defs>
  <g id="Mask_Group_71" data-name="Mask Group 71" transform="translate(-637 -63)" clip-path="url(#clip-path)">
    <g id="account" transform="translate(640.645 63)">
      <path id="Path_191" data-name="Path 191" d="M18.077,21.2a10.255,10.255,0,0,0,7.493-3.1,10.255,10.255,0,0,0,3.1-7.493A10.256,10.256,0,0,0,25.57,3.1,10.256,10.256,0,0,0,18.077,0a10.254,10.254,0,0,0-7.493,3.1,10.254,10.254,0,0,0-3.1,7.493,10.255,10.255,0,0,0,3.1,7.493,10.258,10.258,0,0,0,7.493,3.1ZM12.408,4.928a7.66,7.66,0,0,1,5.67-2.349,7.662,7.662,0,0,1,5.67,2.349A7.662,7.662,0,0,1,26.1,10.6a7.661,7.661,0,0,1-2.35,5.67,7.661,7.661,0,0,1-5.67,2.35,7.662,7.662,0,0,1-5.67-2.35,7.66,7.66,0,0,1-2.35-5.67,7.661,7.661,0,0,1,2.35-5.67Zm0,0"/>
      <path id="Path_192" data-name="Path 192" d="M36.62,33.834a26.176,26.176,0,0,0-.357-2.78,21.9,21.9,0,0,0-.684-2.8,13.809,13.809,0,0,0-1.149-2.607A9.827,9.827,0,0,0,32.7,23.393a7.64,7.64,0,0,0-2.489-1.564,8.6,8.6,0,0,0-3.178-.575,3.225,3.225,0,0,0-1.722.73c-.516.337-1.12.726-1.794,1.157a10.281,10.281,0,0,1-2.322,1.023,9.015,9.015,0,0,1-5.679,0,10.251,10.251,0,0,1-2.32-1.023c-.668-.427-1.272-.816-1.8-1.157a3.222,3.222,0,0,0-1.722-.73,8.592,8.592,0,0,0-3.177.576,7.634,7.634,0,0,0-2.49,1.564,9.83,9.83,0,0,0-1.732,2.258,13.834,13.834,0,0,0-1.149,2.607,21.957,21.957,0,0,0-.683,2.795,26,26,0,0,0-.357,2.781C.03,34.675,0,35.55,0,36.433a7.306,7.306,0,0,0,2.17,5.528A7.811,7.811,0,0,0,7.762,44H28.948a7.812,7.812,0,0,0,5.591-2.039,7.3,7.3,0,0,0,2.17-5.528c0-.887-.03-1.761-.089-2.6Zm-3.859,6.259a5.259,5.259,0,0,1-3.814,1.329H7.762a5.259,5.259,0,0,1-3.814-1.329,4.771,4.771,0,0,1-1.369-3.66c0-.824.027-1.639.082-2.42a23.449,23.449,0,0,1,.322-2.5,19.365,19.365,0,0,1,.6-2.464,11.262,11.262,0,0,1,.935-2.12,7.286,7.286,0,0,1,1.273-1.669,5.068,5.068,0,0,1,1.656-1.03,5.933,5.933,0,0,1,2.031-.392c.09.048.251.14.512.31.53.345,1.141.74,1.816,1.171a12.775,12.775,0,0,0,2.914,1.3,11.592,11.592,0,0,0,7.265,0,12.79,12.79,0,0,0,2.916-1.3c.691-.442,1.285-.824,1.815-1.17.26-.17.421-.262.512-.31a5.937,5.937,0,0,1,2.031.392,5.076,5.076,0,0,1,1.656,1.03,7.266,7.266,0,0,1,1.273,1.669,11.224,11.224,0,0,1,.936,2.119,19.32,19.32,0,0,1,.6,2.464,23.647,23.647,0,0,1,.322,2.5h0c.055.778.082,1.592.083,2.419a4.771,4.771,0,0,1-1.37,3.659Zm0,0"/>
    </g>
  </g>
</svg>
